<svg xmlns="http://www.w3.org/2000/svg" xmlns:xlink="http://www.w3.org/1999/xlink" width="200" zoomAndPan="magnify" viewBox="0 0 150 52.499999" height="70" preserveAspectRatio="xMidYMid meet" version="1.2"><defs><clipPath id="11b3b81ee3"><path d="M 4.167969 6.453125 L 60.632812 6.453125 L 60.632812 45.828125 L 4.167969 45.828125 Z M 4.167969 6.453125 "/></clipPath></defs><g id="7276113811"><g clip-rule="nonzero" clip-path="url(#11b3b81ee3)"><path style=" stroke:none;fill-rule:evenodd;fill:#ff5a29;fill-opacity:1;" d="M 4.167969 29.449219 C 4.167969 23.1875 8.574219 20.921875 14.457031 19.65625 C 15.5625 12.191406 21.992188 6.464844 29.765625 6.464844 C 34.417969 6.464844 38.59375 8.519531 41.429688 11.773438 C 42.707031 11.355469 44.070312 11.128906 45.488281 11.128906 C 52.695312 11.128906 58.535156 16.96875 58.535156 24.171875 C 58.535156 24.808594 58.488281 25.429688 58.402344 26.039062 C 59.617188 27.988281 60.320312 30.289062 60.320312 32.753906 C 60.320312 39.703125 54.605469 45.527344 47.609375 45.453125 L 37.0625 45.453125 C 28.894531 45.453125 23.925781 39.703125 31.039062 33.417969 L 34.550781 30.316406 L 40.71875 42.683594 L 41.710938 41.855469 C 42.222656 41.433594 42.058594 40.558594 41.871094 39.871094 L 39.789062 31.941406 C 39.808594 31.925781 39.828125 31.910156 39.847656 31.890625 L 42.308594 29.429688 C 42.550781 29.1875 42.550781 28.792969 42.308594 28.554688 L 41.363281 27.605469 C 41.121094 27.363281 40.726562 27.363281 40.488281 27.605469 L 39.03125 29.0625 L 38.496094 27.039062 L 43.914062 22.539062 C 45.136719 21.519531 45.785156 19.359375 44.25 17.773438 C 42.664062 16.238281 40.503906 16.886719 39.484375 18.109375 L 34.984375 23.523438 L 32.960938 22.992188 L 34.417969 21.535156 C 34.660156 21.296875 34.660156 20.902344 34.417969 20.660156 L 33.46875 19.710938 C 33.230469 19.472656 32.835938 19.472656 32.59375 19.710938 L 30.132812 22.175781 C 30.113281 22.195312 30.097656 22.214844 30.078125 22.234375 L 22.152344 20.148438 C 21.464844 19.964844 20.589844 19.800781 20.167969 20.308594 L 19.339844 21.304688 L 31.707031 27.472656 L 28.550781 31.046875 C 21.746094 38.746094 4.167969 43.652344 4.167969 29.449219 "/></g><g style="fill:#ff5a29;fill-opacity:1;"><g transform="translate(66.050593, 36.016473)"><path style="stroke:none" d="M 0.921875 -3.046875 L 11.78125 -15.359375 L 11.78125 -15.484375 L 1.1875 -15.484375 L 1.1875 -18.53125 L 16.671875 -18.53125 L 16.671875 -15.484375 L 5.828125 -3.171875 L 5.828125 -3.046875 L 16.8125 -3.046875 L 16.8125 0 L 0.921875 0 Z M 0.921875 -3.046875 "/></g></g><g style="fill:#ff5a29;fill-opacity:1;"><g transform="translate(82.482907, 36.016473)"><path style="stroke:none" d="M 2.125 -13.234375 L 5.5625 -13.234375 L 5.5625 0 L 2.125 0 Z M 3.84375 -15.09375 C 3.238281 -15.09375 2.734375 -15.289062 2.328125 -15.6875 C 1.921875 -16.082031 1.71875 -16.546875 1.71875 -17.078125 C 1.71875 -17.597656 1.921875 -18.054688 2.328125 -18.453125 C 2.734375 -18.859375 3.238281 -19.0625 3.84375 -19.0625 C 4.4375 -19.0625 4.9375 -18.859375 5.34375 -18.453125 C 5.75 -18.054688 5.953125 -17.597656 5.953125 -17.078125 C 5.953125 -16.546875 5.75 -16.082031 5.34375 -15.6875 C 4.9375 -15.289062 4.4375 -15.09375 3.84375 -15.09375 Z M 3.84375 -15.09375 "/></g></g><g style="fill:#ff5a29;fill-opacity:1;"><g transform="translate(88.860023, 36.016473)"><path style="stroke:none" d="M 7.8125 5.5625 C 7.019531 5.5625 6.304688 5.476562 5.671875 5.3125 C 5.035156 5.144531 4.484375 4.960938 4.015625 4.765625 C 3.492188 4.535156 3.035156 4.269531 2.640625 3.96875 L 3.96875 1.59375 C 4.289062 1.78125 4.65625 1.957031 5.0625 2.125 C 5.40625 2.257812 5.804688 2.378906 6.265625 2.484375 C 6.734375 2.585938 7.25 2.640625 7.8125 2.640625 C 8.707031 2.640625 9.421875 2.488281 9.953125 2.1875 C 10.484375 1.894531 10.898438 1.5625 11.203125 1.1875 C 11.535156 0.769531 11.769531 0.285156 11.90625 -0.265625 L 11.90625 -0.53125 C 11.59375 -0.476562 11.273438 -0.429688 10.953125 -0.390625 C 10.671875 -0.359375 10.359375 -0.328125 10.015625 -0.296875 C 9.671875 -0.273438 9.332031 -0.265625 9 -0.265625 C 7.875 -0.265625 6.875 -0.414062 6 -0.71875 C 5.125 -1.019531 4.390625 -1.429688 3.796875 -1.953125 C 3.203125 -2.484375 2.75 -3.109375 2.4375 -3.828125 C 2.132812 -4.554688 1.984375 -5.351562 1.984375 -6.21875 L 1.984375 -13.234375 L 5.421875 -13.234375 L 5.421875 -6.21875 C 5.421875 -5.351562 5.734375 -4.628906 6.359375 -4.046875 C 6.992188 -3.460938 7.875 -3.171875 9 -3.171875 C 9.351562 -3.171875 9.707031 -3.1875 10.0625 -3.21875 C 10.414062 -3.257812 10.734375 -3.304688 11.015625 -3.359375 C 11.328125 -3.429688 11.625 -3.503906 11.90625 -3.578125 L 11.90625 -13.234375 L 15.359375 -13.234375 L 15.359375 -0.53125 C 15.359375 0.257812 15.1875 1.019531 14.84375 1.75 C 14.507812 2.488281 14.015625 3.140625 13.359375 3.703125 C 12.710938 4.265625 11.921875 4.710938 10.984375 5.046875 C 10.046875 5.390625 8.988281 5.5625 7.8125 5.5625 Z M 7.8125 5.5625 "/></g></g><g style="fill:#ff5a29;fill-opacity:1;"><g transform="translate(104.895418, 36.016473)"><path style="stroke:none" d="M 7.546875 0.53125 C 6.378906 0.53125 5.378906 0.410156 4.546875 0.171875 C 3.722656 -0.0664062 3.039062 -0.390625 2.5 -0.796875 C 1.957031 -1.203125 1.554688 -1.6875 1.296875 -2.25 C 1.046875 -2.8125 0.921875 -3.429688 0.921875 -4.109375 C 0.921875 -4.753906 1.046875 -5.363281 1.296875 -5.9375 C 1.554688 -6.507812 1.957031 -7 2.5 -7.40625 C 3.039062 -7.8125 3.722656 -8.132812 4.546875 -8.375 C 5.378906 -8.613281 6.378906 -8.734375 7.546875 -8.734375 C 7.960938 -8.734375 8.351562 -8.71875 8.71875 -8.6875 C 9.082031 -8.664062 9.40625 -8.640625 9.6875 -8.609375 C 10 -8.546875 10.300781 -8.5 10.59375 -8.46875 C 10.59375 -9.207031 10.347656 -9.789062 9.859375 -10.21875 C 9.367188 -10.644531 8.597656 -10.859375 7.546875 -10.859375 C 7.015625 -10.859375 6.523438 -10.804688 6.078125 -10.703125 C 5.628906 -10.609375 5.234375 -10.5 4.890625 -10.375 C 4.503906 -10.226562 4.15625 -10.078125 3.84375 -9.921875 L 2.515625 -12.3125 C 2.890625 -12.570312 3.332031 -12.804688 3.84375 -13.015625 C 4.257812 -13.210938 4.78125 -13.382812 5.40625 -13.53125 C 6.039062 -13.6875 6.753906 -13.765625 7.546875 -13.765625 C 9.679688 -13.765625 11.296875 -13.242188 12.390625 -12.203125 C 13.484375 -11.160156 14.03125 -9.738281 14.03125 -7.9375 L 14.03125 -0.390625 C 13.425781 -0.210938 12.769531 -0.0546875 12.0625 0.078125 C 11.46875 0.203125 10.78125 0.304688 10 0.390625 C 9.226562 0.484375 8.410156 0.53125 7.546875 0.53125 Z M 7.546875 -2.375 C 7.953125 -2.375 8.332031 -2.390625 8.6875 -2.421875 C 9.050781 -2.460938 9.375 -2.507812 9.65625 -2.5625 C 9.976562 -2.632812 10.289062 -2.707031 10.59375 -2.78125 L 10.59375 -5.5625 L 9.65625 -5.6875 C 9.375 -5.726562 9.050781 -5.757812 8.6875 -5.78125 C 8.332031 -5.8125 7.953125 -5.828125 7.546875 -5.828125 C 6.410156 -5.828125 5.617188 -5.65625 5.171875 -5.3125 C 4.722656 -4.96875 4.5 -4.566406 4.5 -4.109375 C 4.5 -3.648438 4.722656 -3.242188 5.171875 -2.890625 C 5.617188 -2.546875 6.410156 -2.375 7.546875 -2.375 Z M 7.546875 -2.375 "/></g></g><g style="fill:#ff5a29;fill-opacity:1;"><g transform="translate(119.475458, 36.016473)"><path style="stroke:none" d="M 1.984375 -12.578125 C 2.472656 -12.785156 3.007812 -12.976562 3.59375 -13.15625 C 4.09375 -13.289062 4.664062 -13.425781 5.3125 -13.5625 C 5.96875 -13.695312 6.664062 -13.765625 7.40625 -13.765625 C 8.039062 -13.765625 8.628906 -13.710938 9.171875 -13.609375 C 9.722656 -13.503906 10.203125 -13.378906 10.609375 -13.234375 C 11.066406 -13.078125 11.5 -12.898438 11.90625 -12.703125 L 10.984375 -10.0625 C 10.722656 -10.195312 10.421875 -10.328125 10.078125 -10.453125 C 9.785156 -10.546875 9.4375 -10.632812 9.03125 -10.71875 C 8.625 -10.8125 8.171875 -10.859375 7.671875 -10.859375 C 7.367188 -10.859375 7.085938 -10.832031 6.828125 -10.78125 C 6.566406 -10.738281 6.328125 -10.691406 6.109375 -10.640625 C 5.867188 -10.566406 5.640625 -10.503906 5.421875 -10.453125 L 5.421875 0 L 1.984375 0 Z M 1.984375 -12.578125 "/></g></g><g style="fill:#ff5a29;fill-opacity:1;"><g transform="translate(130.350954, 36.016473)"><path style="stroke:none" d="M 7.546875 0.53125 C 6.378906 0.53125 5.378906 0.410156 4.546875 0.171875 C 3.722656 -0.0664062 3.039062 -0.390625 2.5 -0.796875 C 1.957031 -1.203125 1.554688 -1.6875 1.296875 -2.25 C 1.046875 -2.8125 0.921875 -3.429688 0.921875 -4.109375 C 0.921875 -4.753906 1.046875 -5.363281 1.296875 -5.9375 C 1.554688 -6.507812 1.957031 -7 2.5 -7.40625 C 3.039062 -7.8125 3.722656 -8.132812 4.546875 -8.375 C 5.378906 -8.613281 6.378906 -8.734375 7.546875 -8.734375 C 7.960938 -8.734375 8.351562 -8.71875 8.71875 -8.6875 C 9.082031 -8.664062 9.40625 -8.640625 9.6875 -8.609375 C 10 -8.546875 10.300781 -8.5 10.59375 -8.46875 C 10.59375 -9.207031 10.347656 -9.789062 9.859375 -10.21875 C 9.367188 -10.644531 8.597656 -10.859375 7.546875 -10.859375 C 7.015625 -10.859375 6.523438 -10.804688 6.078125 -10.703125 C 5.628906 -10.609375 5.234375 -10.5 4.890625 -10.375 C 4.503906 -10.226562 4.15625 -10.078125 3.84375 -9.921875 L 2.515625 -12.3125 C 2.890625 -12.570312 3.332031 -12.804688 3.84375 -13.015625 C 4.257812 -13.210938 4.78125 -13.382812 5.40625 -13.53125 C 6.039062 -13.6875 6.753906 -13.765625 7.546875 -13.765625 C 9.679688 -13.765625 11.296875 -13.242188 12.390625 -12.203125 C 13.484375 -11.160156 14.03125 -9.738281 14.03125 -7.9375 L 14.03125 -0.390625 C 13.425781 -0.210938 12.769531 -0.0546875 12.0625 0.078125 C 11.46875 0.203125 10.78125 0.304688 10 0.390625 C 9.226562 0.484375 8.410156 0.53125 7.546875 0.53125 Z M 7.546875 -2.375 C 7.953125 -2.375 8.332031 -2.390625 8.6875 -2.421875 C 9.050781 -2.460938 9.375 -2.507812 9.65625 -2.5625 C 9.976562 -2.632812 10.289062 -2.707031 10.59375 -2.78125 L 10.59375 -5.5625 L 9.65625 -5.6875 C 9.375 -5.726562 9.050781 -5.757812 8.6875 -5.78125 C 8.332031 -5.8125 7.953125 -5.828125 7.546875 -5.828125 C 6.410156 -5.828125 5.617188 -5.65625 5.171875 -5.3125 C 4.722656 -4.96875 4.5 -4.566406 4.5 -4.109375 C 4.5 -3.648438 4.722656 -3.242188 5.171875 -2.890625 C 5.617188 -2.546875 6.410156 -2.375 7.546875 -2.375 Z M 7.546875 -2.375 "/></g></g></g></svg>