<svg xmlns="http://www.w3.org/2000/svg" xmlns:xlink="http://www.w3.org/1999/xlink" width="200" zoomAndPan="magnify" viewBox="0 0 150 74.999997" height="50" preserveAspectRatio="xMidYMid meet" version="1.2"><defs><clipPath id="e50555879f"><path d="M 13.5 19.695312 L 64.5 19.695312 L 64.5 54.945312 L 13.5 54.945312 Z M 13.5 19.695312 "/></clipPath></defs><g id="8f9af48788"><g clip-rule="nonzero" clip-path="url(#e50555879f)"><path style=" stroke:none;fill-rule:evenodd;fill:#ff5a29;fill-opacity:1;" d="M 13.496094 40.429688 C 13.496094 34.789062 17.472656 32.742188 22.773438 31.601562 C 23.769531 24.871094 29.570312 19.707031 36.574219 19.707031 C 40.773438 19.707031 44.535156 21.5625 47.09375 24.492188 C 48.246094 24.117188 49.476562 23.914062 50.753906 23.914062 C 57.25 23.914062 62.515625 29.179688 62.515625 35.675781 C 62.515625 36.246094 62.472656 36.808594 62.394531 37.359375 C 63.492188 39.113281 64.125 41.1875 64.125 43.414062 C 64.125 49.675781 58.972656 54.925781 52.667969 54.863281 L 43.15625 54.863281 C 35.792969 54.863281 31.3125 49.679688 37.726562 44.011719 L 40.890625 41.214844 L 46.453125 52.363281 L 47.347656 51.617188 C 47.808594 51.234375 47.660156 50.445312 47.492188 49.828125 L 45.613281 42.679688 C 45.632812 42.664062 45.652344 42.648438 45.667969 42.632812 L 47.886719 40.414062 C 48.105469 40.195312 48.105469 39.839844 47.886719 39.625 L 47.03125 38.769531 C 46.816406 38.550781 46.460938 38.550781 46.242188 38.769531 L 44.929688 40.082031 L 44.449219 38.257812 L 49.332031 34.199219 C 50.4375 33.28125 51.019531 31.335938 49.636719 29.902344 C 48.207031 28.523438 46.257812 29.105469 45.339844 30.207031 L 41.285156 35.089844 L 39.457031 34.609375 L 40.773438 33.296875 C 40.988281 33.082031 40.988281 32.726562 40.773438 32.507812 L 39.917969 31.652344 C 39.699219 31.4375 39.34375 31.4375 39.128906 31.652344 L 36.910156 33.871094 C 36.890625 33.890625 36.875 33.910156 36.859375 33.925781 L 29.710938 32.046875 C 29.09375 31.882812 28.304688 31.730469 27.921875 32.191406 L 27.175781 33.089844 L 38.328125 38.648438 L 35.480469 41.871094 C 29.347656 48.8125 13.496094 53.238281 13.496094 40.429688 "/></g><g style="fill:#ff5a29;fill-opacity:1;"><g transform="translate(69.850428, 46.619126)"><path style="stroke:none" d="M 0.84375 -2.765625 L 10.71875 -13.96875 L 10.71875 -14.09375 L 1.078125 -14.09375 L 1.078125 -16.859375 L 15.171875 -16.859375 L 15.171875 -14.09375 L 5.296875 -2.890625 L 5.296875 -2.765625 L 15.296875 -2.765625 L 15.296875 0 L 0.84375 0 Z M 0.84375 -2.765625 "/></g></g><g style="fill:#ff5a29;fill-opacity:1;"><g transform="translate(84.814145, 46.619126)"><path style="stroke:none" d="M 1.921875 -12.046875 L 5.0625 -12.046875 L 5.0625 0 L 1.921875 0 Z M 3.5 -13.734375 C 2.945312 -13.734375 2.484375 -13.910156 2.109375 -14.265625 C 1.742188 -14.628906 1.5625 -15.054688 1.5625 -15.546875 C 1.5625 -16.023438 1.742188 -16.441406 2.109375 -16.796875 C 2.484375 -17.160156 2.945312 -17.34375 3.5 -17.34375 C 4.039062 -17.34375 4.492188 -17.160156 4.859375 -16.796875 C 5.234375 -16.441406 5.421875 -16.023438 5.421875 -15.546875 C 5.421875 -15.054688 5.234375 -14.628906 4.859375 -14.265625 C 4.492188 -13.910156 4.039062 -13.734375 3.5 -13.734375 Z M 3.5 -13.734375 "/></g></g><g style="fill:#ff5a29;fill-opacity:1;"><g transform="translate(90.621321, 46.619126)"><path style="stroke:none" d="M 7.109375 5.0625 C 6.390625 5.0625 5.738281 4.984375 5.15625 4.828125 C 4.570312 4.679688 4.070312 4.519531 3.65625 4.34375 C 3.175781 4.132812 2.757812 3.890625 2.40625 3.609375 L 3.609375 1.453125 C 3.898438 1.617188 4.234375 1.773438 4.609375 1.921875 C 4.921875 2.054688 5.285156 2.171875 5.703125 2.265625 C 6.128906 2.359375 6.597656 2.40625 7.109375 2.40625 C 7.929688 2.40625 8.582031 2.269531 9.0625 2 C 9.539062 1.726562 9.914062 1.421875 10.1875 1.078125 C 10.5 0.691406 10.71875 0.253906 10.84375 -0.234375 L 10.84375 -0.484375 C 10.550781 -0.429688 10.257812 -0.390625 9.96875 -0.359375 C 9.71875 -0.328125 9.4375 -0.296875 9.125 -0.265625 C 8.8125 -0.242188 8.5 -0.234375 8.1875 -0.234375 C 7.164062 -0.234375 6.253906 -0.367188 5.453125 -0.640625 C 4.660156 -0.921875 3.992188 -1.300781 3.453125 -1.78125 C 2.921875 -2.257812 2.515625 -2.828125 2.234375 -3.484375 C 1.953125 -4.148438 1.8125 -4.875 1.8125 -5.65625 L 1.8125 -12.046875 L 4.9375 -12.046875 L 4.9375 -5.65625 C 4.9375 -4.875 5.222656 -4.21875 5.796875 -3.6875 C 6.367188 -3.15625 7.164062 -2.890625 8.1875 -2.890625 C 8.507812 -2.890625 8.832031 -2.90625 9.15625 -2.9375 C 9.476562 -2.96875 9.765625 -3.007812 10.015625 -3.0625 C 10.304688 -3.125 10.582031 -3.1875 10.84375 -3.25 L 10.84375 -12.046875 L 13.96875 -12.046875 L 13.96875 -0.484375 C 13.96875 0.242188 13.816406 0.941406 13.515625 1.609375 C 13.210938 2.273438 12.765625 2.863281 12.171875 3.375 C 11.578125 3.882812 10.851562 4.289062 10 4.59375 C 9.144531 4.90625 8.179688 5.0625 7.109375 5.0625 Z M 7.109375 5.0625 "/></g></g><g style="fill:#ff5a29;fill-opacity:1;"><g transform="translate(105.223593, 46.619126)"><path style="stroke:none" d="M 6.859375 0.484375 C 5.804688 0.484375 4.898438 0.375 4.140625 0.15625 C 3.390625 -0.0625 2.769531 -0.351562 2.28125 -0.71875 C 1.789062 -1.09375 1.425781 -1.535156 1.1875 -2.046875 C 0.957031 -2.554688 0.84375 -3.117188 0.84375 -3.734375 C 0.84375 -4.328125 0.957031 -4.882812 1.1875 -5.40625 C 1.425781 -5.925781 1.789062 -6.367188 2.28125 -6.734375 C 2.769531 -7.109375 3.390625 -7.40625 4.140625 -7.625 C 4.898438 -7.84375 5.804688 -7.953125 6.859375 -7.953125 C 7.242188 -7.953125 7.601562 -7.9375 7.9375 -7.90625 C 8.269531 -7.882812 8.5625 -7.859375 8.8125 -7.828125 C 9.101562 -7.785156 9.378906 -7.742188 9.640625 -7.703125 C 9.640625 -8.378906 9.414062 -8.910156 8.96875 -9.296875 C 8.53125 -9.679688 7.828125 -9.875 6.859375 -9.875 C 6.378906 -9.875 5.9375 -9.828125 5.53125 -9.734375 C 5.125 -9.648438 4.765625 -9.550781 4.453125 -9.4375 C 4.097656 -9.3125 3.78125 -9.175781 3.5 -9.03125 L 2.28125 -11.203125 C 2.625 -11.441406 3.03125 -11.660156 3.5 -11.859375 C 3.882812 -12.035156 4.359375 -12.191406 4.921875 -12.328125 C 5.492188 -12.460938 6.140625 -12.53125 6.859375 -12.53125 C 8.804688 -12.53125 10.273438 -12.054688 11.265625 -11.109375 C 12.265625 -10.160156 12.765625 -8.867188 12.765625 -7.234375 L 12.765625 -0.359375 C 12.222656 -0.203125 11.628906 -0.0546875 10.984375 0.078125 C 10.441406 0.179688 9.816406 0.273438 9.109375 0.359375 C 8.398438 0.441406 7.648438 0.484375 6.859375 0.484375 Z M 6.859375 -2.171875 C 7.234375 -2.171875 7.582031 -2.1875 7.90625 -2.21875 C 8.238281 -2.25 8.535156 -2.289062 8.796875 -2.34375 C 9.085938 -2.40625 9.367188 -2.46875 9.640625 -2.53125 L 9.640625 -5.0625 L 8.796875 -5.1875 C 8.535156 -5.21875 8.238281 -5.242188 7.90625 -5.265625 C 7.582031 -5.285156 7.234375 -5.296875 6.859375 -5.296875 C 5.835938 -5.296875 5.117188 -5.140625 4.703125 -4.828125 C 4.296875 -4.515625 4.09375 -4.148438 4.09375 -3.734375 C 4.09375 -3.316406 4.296875 -2.953125 4.703125 -2.640625 C 5.117188 -2.328125 5.835938 -2.171875 6.859375 -2.171875 Z M 6.859375 -2.171875 "/></g></g><g style="fill:#ff5a29;fill-opacity:1;"><g transform="translate(118.500578, 46.619126)"><path style="stroke:none" d="M 1.8125 -11.4375 C 2.257812 -11.632812 2.75 -11.8125 3.28125 -11.96875 C 3.726562 -12.101562 4.25 -12.226562 4.84375 -12.34375 C 5.4375 -12.46875 6.070312 -12.53125 6.75 -12.53125 C 7.320312 -12.53125 7.859375 -12.476562 8.359375 -12.375 C 8.859375 -12.28125 9.289062 -12.171875 9.65625 -12.046875 C 10.070312 -11.898438 10.46875 -11.738281 10.84375 -11.5625 L 10 -9.15625 C 9.757812 -9.28125 9.488281 -9.398438 9.1875 -9.515625 C 8.90625 -9.597656 8.578125 -9.675781 8.203125 -9.75 C 7.835938 -9.832031 7.429688 -9.875 6.984375 -9.875 C 6.710938 -9.875 6.457031 -9.851562 6.21875 -9.8125 C 5.976562 -9.78125 5.757812 -9.738281 5.5625 -9.6875 C 5.34375 -9.625 5.132812 -9.566406 4.9375 -9.515625 L 4.9375 0 L 1.8125 0 Z M 1.8125 -11.4375 "/></g></g><g style="fill:#ff5a29;fill-opacity:1;"><g transform="translate(128.404104, 46.619126)"><path style="stroke:none" d="M 6.859375 0.484375 C 5.804688 0.484375 4.898438 0.375 4.140625 0.15625 C 3.390625 -0.0625 2.769531 -0.351562 2.28125 -0.71875 C 1.789062 -1.09375 1.425781 -1.535156 1.1875 -2.046875 C 0.957031 -2.554688 0.84375 -3.117188 0.84375 -3.734375 C 0.84375 -4.328125 0.957031 -4.882812 1.1875 -5.40625 C 1.425781 -5.925781 1.789062 -6.367188 2.28125 -6.734375 C 2.769531 -7.109375 3.390625 -7.40625 4.140625 -7.625 C 4.898438 -7.84375 5.804688 -7.953125 6.859375 -7.953125 C 7.242188 -7.953125 7.601562 -7.9375 7.9375 -7.90625 C 8.269531 -7.882812 8.5625 -7.859375 8.8125 -7.828125 C 9.101562 -7.785156 9.378906 -7.742188 9.640625 -7.703125 C 9.640625 -8.378906 9.414062 -8.910156 8.96875 -9.296875 C 8.53125 -9.679688 7.828125 -9.875 6.859375 -9.875 C 6.378906 -9.875 5.9375 -9.828125 5.53125 -9.734375 C 5.125 -9.648438 4.765625 -9.550781 4.453125 -9.4375 C 4.097656 -9.3125 3.78125 -9.175781 3.5 -9.03125 L 2.28125 -11.203125 C 2.625 -11.441406 3.03125 -11.660156 3.5 -11.859375 C 3.882812 -12.035156 4.359375 -12.191406 4.921875 -12.328125 C 5.492188 -12.460938 6.140625 -12.53125 6.859375 -12.53125 C 8.804688 -12.53125 10.273438 -12.054688 11.265625 -11.109375 C 12.265625 -10.160156 12.765625 -8.867188 12.765625 -7.234375 L 12.765625 -0.359375 C 12.222656 -0.203125 11.628906 -0.0546875 10.984375 0.078125 C 10.441406 0.179688 9.816406 0.273438 9.109375 0.359375 C 8.398438 0.441406 7.648438 0.484375 6.859375 0.484375 Z M 6.859375 -2.171875 C 7.234375 -2.171875 7.582031 -2.1875 7.90625 -2.21875 C 8.238281 -2.25 8.535156 -2.289062 8.796875 -2.34375 C 9.085938 -2.40625 9.367188 -2.46875 9.640625 -2.53125 L 9.640625 -5.0625 L 8.796875 -5.1875 C 8.535156 -5.21875 8.238281 -5.242188 7.90625 -5.265625 C 7.582031 -5.285156 7.234375 -5.296875 6.859375 -5.296875 C 5.835938 -5.296875 5.117188 -5.140625 4.703125 -4.828125 C 4.296875 -4.515625 4.09375 -4.148438 4.09375 -3.734375 C 4.09375 -3.316406 4.296875 -2.953125 4.703125 -2.640625 C 5.117188 -2.328125 5.835938 -2.171875 6.859375 -2.171875 Z M 6.859375 -2.171875 "/></g></g></g></svg>